<?xml version="1.0" encoding="iso-8859-1"?>
<!-- Generator: Adobe Illustrator 19.0.0, SVG Export Plug-In . SVG Version: 6.00 Build 0)  -->
<svg version="1.1" id="Layer_1" xmlns="http://www.w3.org/2000/svg" xmlns:xlink="http://www.w3.org/1999/xlink" x="0px" y="0px"
	 viewBox="0 0 472.615 472.615" style="enable-background:new 0 0 472.615 472.615;" xml:space="preserve">
<g>
	<g>
		<path d="M374.154,347.811v-35.96l-32.588-5.43c-2.753-12.431-7.666-24.022-14.299-34.43l19.227-26.917l-25.428-25.427
			l-26.916,19.226c-10.409-6.634-22.001-11.546-34.43-14.299l-5.431-32.588h-35.96l-5.431,32.588
			c-12.429,2.753-24.021,7.664-34.43,14.299l-26.916-19.226l-25.428,25.427l19.227,26.917c-6.633,10.408-11.547,21.999-14.3,34.43
			l-32.588,5.43v35.96l32.588,5.431c2.753,12.43,7.665,24.022,14.3,34.431l-19.227,26.915l25.428,25.428l26.916-19.226
			c10.409,6.633,22.001,11.546,34.43,14.298l5.431,32.59h35.96l5.431-32.59c12.429-2.752,24.021-7.664,34.43-14.298l26.916,19.226
			l25.428-25.428l-19.227-26.915c6.634-10.409,11.547-22.001,14.299-34.431L374.154,347.811z M236.308,383.771
			c-29.791,0-53.94-24.15-53.94-53.939c0-29.792,24.15-53.94,53.94-53.94s53.94,24.149,53.94,53.94
			C290.248,359.621,266.098,383.771,236.308,383.771z"/>
	</g>
</g>
<g>
	<g>
		<path d="M406.154,148.1c3.938-12.11,5.415-24.417,4.529-38.694C407.138,52.198,356.234,5.331,297.157,4.938h-0.886
			c-47.655,0-90.191,29.046-106.929,71.286c-17.526-13.883-40.074-20.578-63.114-18.511c-31.705,3.053-59.569,24.222-72.468,55.335
			c-6.498,15.359-5.219,32.59-3.742,42.436C19.397,172.814,0,205.701,0,241.246c0,47.51,33.906,87.314,78.769,96.474v-42.554
			l36.706-6.115c1.827-5.404,4.019-10.673,6.567-15.798l-21.644-30.317l49.019-49.009l30.302,21.644
			c5.125-2.548,10.4-4.74,15.803-6.567l6.12-36.711h69.327l6.12,36.711c5.404,1.827,10.678,4.019,15.803,6.567l30.302-21.644
			l49.019,49.009l-21.644,30.317c2.548,5.125,4.74,10.395,6.567,15.798l36.706,6.115v42.554
			c44.863-9.16,78.769-48.964,78.769-96.474C472.615,199.104,445.243,161.59,406.154,148.1z"/>
	</g>
</g>
<g>
</g>
<g>
</g>
<g>
</g>
<g>
</g>
<g>
</g>
<g>
</g>
<g>
</g>
<g>
</g>
<g>
</g>
<g>
</g>
<g>
</g>
<g>
</g>
<g>
</g>
<g>
</g>
<g>
</g>
</svg>
